<?xml version="1.0" encoding="UTF-8"?>
<svg width="61px" height="100px" viewBox="0 0 61 100" version="1.1" xmlns="http://www.w3.org/2000/svg" xmlns:xlink="http://www.w3.org/1999/xlink">
    <!-- Generator: Sketch 50.2 (55047) - http://www.bohemiancoding.com/sketch -->
    <title>Group 5</title>
    <desc>Created with Sketch.</desc>
    <defs>
        <linearGradient x1="-77.746778%" y1="111.163015%" x2="206.858234%" y2="-42.4677599%" id="linearGradient-1">
            <stop stop-color="#0071BC" offset="0%"></stop>
            <stop stop-color="#2E3192" offset="100%"></stop>
        </linearGradient>
        <linearGradient x1="-220.384827%" y1="177.354073%" x2="64.5602151%" y2="22.7522472%" id="linearGradient-2">
            <stop stop-color="#0071BC" offset="0%"></stop>
            <stop stop-color="#2E3192" offset="100%"></stop>
        </linearGradient>
        <linearGradient x1="-24.343384%" y1="109.732802%" x2="83.7140657%" y2="48.1687919%" id="linearGradient-3">
            <stop stop-color="#0071BC" offset="0%"></stop>
            <stop stop-color="#2E3192" offset="100%"></stop>
        </linearGradient>
    </defs>
    <g id="Log-Fix" stroke="none" stroke-width="1" fill="none" fill-rule="evenodd">
        <g id="Group-5" fill-rule="nonzero">
            <path d="M22.9839286,83.6784741 L22.9839286,88.9918256 C22.9839286,94.9591281 18.1366071,99.8365123 12.1455357,99.8365123 L11.0017857,99.8365123 C5.03794643,99.8365123 0.163392857,94.986376 0.163392857,88.9918256 L0.163392857,60.7901907 C0.408482143,61.0626703 0.653571429,61.3623978 0.925892857,61.6348774 L22.9839286,83.6784741 Z" id="Shape" fill="url(#linearGradient-1)"></path>
            <path d="M22.9839286,11.0354223 L22.9839286,16.1035422 L0.953125,38.147139 C0.680803571,38.4196185 0.435714286,38.6920981 0.190625,38.9918256 L0.190625,11.0354223 C0.190625,5.06811989 5.03794643,0.190735695 11.0290179,0.190735695 L12.1727679,0.190735695 C18.109375,0.190735695 22.9839286,5.04087193 22.9839286,11.0354223 Z" id="Shape" fill="url(#linearGradient-2)"></path>
            <path d="M57.3236607,78.5831063 C59.5294643,80.7901907 60.7549107,83.73297 60.7549107,86.893733 C60.7549107,90.027248 59.5294643,92.9972752 57.3236607,95.1771117 C55.0361607,97.4659401 52.040625,98.6103542 49.0450893,98.6103542 C46.0495536,98.6103542 43.0267857,97.4659401 40.7392857,95.1771117 L28.0491071,82.506812 L22.9566964,77.4114441 L11.2741071,65.7220708 L4.08482143,58.5013624 C1.715625,56.1307902 0.571875,52.9972752 0.653571429,49.8910082 C0.571875,46.7847411 1.715625,43.6512262 4.08482143,41.280654 L11.2741071,34.0599455 L22.9566964,22.3705722 L28.0491071,17.2752044 L40.7392857,4.60490463 C43.0267857,2.31607629 46.0223214,1.17166213 49.0450893,1.17166213 C52.040625,1.17166213 55.0361607,2.31607629 57.3236607,4.60490463 C61.8986607,9.18256131 61.8986607,16.6212534 57.3236607,21.1989101 L31.7799107,46.7574932 L28.0491071,43.0245232 L23.7736607,38.746594 C23.4741071,38.4468665 22.9566964,38.6648501 22.9566964,39.1008174 L22.9566964,44.0054496 C22.9566964,44.1416894 23.0111607,44.2506812 23.0928571,44.359673 L28.0491071,49.3188011 L28.6209821,49.8910082 L31.7526786,53.0245232 L57.3236607,78.5831063 Z" id="Shape" fill="url(#linearGradient-3)"></path>
        </g>
    </g>
</svg>